Format                                   : Matroska
Format version                           : Version 2
File size                                : 1.19 GiB
Duration                                 : 2h 39mn
Overall bit rate                         : 1 062 Kbps
Movie name                               : Gangs Of Wasseypur 2 [2012].720p.DVDRip.6Ch.By K@rtik [EXD ExclusivE]

Codec ID                                 : V_MPEG4/ISO/AVC
Duration                                 : 2h 39mn
Bit rate                                 : 817 Kbps
Nominal bit rate                         : 667 Kbps
Width                                    : 1 280 pixels
Height                                   : 544 pixels
Display aspect ratio                     : 2.35:1
Frame rate                               : 23.976 fps
Color space                              : YUV
Chroma subsampling                       : 4:2:0
Bit depth                                : 8 bits
Scan type                                : Progressive
Bits/(Pixel*Frame)                       : 0.049
Stream size                              : 935 MiB (77%)
Title                                    : K@rtik

Codec ID                                 : A_AC3
Duration                                 : 2h 39mn
Bit rate mode                            : Constant
Bit rate                                 : 224 Kbps
Channel(s)                               : 6 channels
Channel positions                        : Front: L C R, Side: L R, LFE
Sampling rate                            : 48.0 KHz
Bit depth                                : 16 bits
Compression mode                         : Lossy
Stream size                              : 256 MiB (21%)
Title                                    : K@rtik
Language                                 : Hindi
 
http://imageshack.us/a/img43/5308/11578652.png 
http://imageshack.us/a/img11/5374/91139824.png 
http://imageshack.us/a/img715/2812/39536660.png 
http://imageshack.us/a/img17/135/42057213.png 
http://imageshack.us/a/img641/488/71894469.png 
http://imageshack.us/a/img138/1749/33219398.png 
http://imageshack.us/a/img685/1977/33697589.png 
http://imageshack.us/a/img217/6669/46089684.png 
http://imageshack.us/a/img822/96/14047233.png 
http://imageshack.us/a/img189/5845/61440734.png

